<svg id="Calque_1" data-name="Calque 1" xmlns="http://www.w3.org/2000/svg" xmlns:xlink="http://www.w3.org/1999/xlink" viewBox="0 0 876 744.82"><defs><style>.cls-1,.cls-4{fill:none;}.cls-2{clip-path:url(#clip-path);}.cls-3{fill:#fff;}.cls-4{stroke:#fff;}.cls-5{fill:#00adee;}</style><clipPath id="clip-path" transform="translate(-307 -23.18)"><rect class="cls-1" x="585" y="236.62" width="197" height="290.38"/></clipPath></defs><title>FondBleu</title><g class="cls-2"><path class="cls-3" d="M646.09,434.28c-8.88,11.07-11.23,27.36-10.35,44.24,1.24,23.69-8.22,54.58-50.24,46.75V237.12h196V455.17S677,395.69,646.09,434.28" transform="translate(-307 -23.18)"/><path class="cls-4" d="M646.09,434.28c-8.88,11.07-11.23,27.36-10.35,44.24,1.24,23.69-8.22,54.58-50.24,46.75V237.12h196V455.17S677,395.69,646.09,434.28" transform="translate(-307 -23.18)"/></g><polygon class="cls-5" points="876 0 516.4 0.51 0 744.82 876 744.82 876 0"/></svg>